<svg id="visual" viewBox="0 0 900 600" width="900" height="600" xmlns="http://www.w3.org/2000/svg" xmlns:xlink="http://www.w3.org/1999/xlink" version="1.1"><path d="M0 43L13.7 44C27.3 45 54.7 47 82 58C109.3 69 136.7 89 163.8 102C191 115 218 121 245.2 122C272.3 123 299.7 119 327 106C354.3 93 381.7 71 409 65C436.3 59 463.7 69 491 72C518.3 75 545.7 71 573 78C600.3 85 627.7 103 654.8 112C682 121 709 121 736.2 118C763.3 115 790.7 109 818 103C845.3 97 872.7 91 886.3 88L900 85L900 0L886.3 0C872.7 0 845.3 0 818 0C790.7 0 763.3 0 736.2 0C709 0 682 0 654.8 0C627.7 0 600.3 0 573 0C545.7 0 518.3 0 491 0C463.7 0 436.3 0 409 0C381.7 0 354.3 0 327 0C299.7 0 272.3 0 245.2 0C218 0 191 0 163.8 0C136.7 0 109.3 0 82 0C54.7 0 27.3 0 13.7 0L0 0Z" fill="#78a1ff"></path><path d="M0 295L13.7 270C27.3 245 54.7 195 82 182C109.3 169 136.7 193 163.8 223C191 253 218 289 245.2 303C272.3 317 299.7 309 327 296C354.3 283 381.7 265 409 265C436.3 265 463.7 283 491 270C518.3 257 545.7 213 573 210C600.3 207 627.7 245 654.8 257C682 269 709 255 736.2 255C763.3 255 790.7 269 818 277C845.3 285 872.7 287 886.3 288L900 289L900 83L886.3 86C872.7 89 845.3 95 818 101C790.7 107 763.3 113 736.2 116C709 119 682 119 654.8 110C627.7 101 600.3 83 573 76C545.7 69 518.3 73 491 70C463.7 67 436.3 57 409 63C381.7 69 354.3 91 327 104C299.7 117 272.3 121 245.2 120C218 119 191 113 163.8 100C136.7 87 109.3 67 82 56C54.7 45 27.3 43 13.7 42L0 41Z" fill="#588bff"></path><path d="M0 337L13.7 314C27.3 291 54.7 245 82 233C109.3 221 136.7 243 163.8 272C191 301 218 337 245.2 360C272.3 383 299.7 393 327 384C354.3 375 381.7 347 409 344C436.3 341 463.7 363 491 353C518.3 343 545.7 301 573 292C600.3 283 627.7 307 654.8 313C682 319 709 307 736.2 307C763.3 307 790.7 319 818 326C845.3 333 872.7 335 886.3 336L900 337L900 287L886.3 286C872.7 285 845.3 283 818 275C790.7 267 763.3 253 736.2 253C709 253 682 267 654.8 255C627.7 243 600.3 205 573 208C545.7 211 518.3 255 491 268C463.7 281 436.3 263 409 263C381.7 263 354.3 281 327 294C299.7 307 272.3 315 245.2 301C218 287 191 251 163.8 221C136.7 191 109.3 167 82 180C54.7 193 27.3 243 13.7 268L0 293Z" fill="#3275ff"></path><path d="M0 487L13.7 469C27.3 451 54.7 415 82 390C109.3 365 136.7 351 163.8 367C191 383 218 429 245.2 450C272.3 471 299.7 467 327 456C354.3 445 381.7 427 409 424C436.3 421 463.7 433 491 418C518.3 403 545.7 361 573 357C600.3 353 627.7 387 654.8 399C682 411 709 401 736.2 398C763.3 395 790.7 399 818 401C845.3 403 872.7 403 886.3 403L900 403L900 335L886.3 334C872.7 333 845.3 331 818 324C790.7 317 763.3 305 736.2 305C709 305 682 317 654.8 311C627.7 305 600.3 281 573 290C545.7 299 518.3 341 491 351C463.7 361 436.3 339 409 342C381.7 345 354.3 373 327 382C299.7 391 272.3 381 245.2 358C218 335 191 299 163.8 270C136.7 241 109.3 219 82 231C54.7 243 27.3 289 13.7 312L0 335Z" fill="#2a64df"></path><path d="M0 601L13.7 601C27.3 601 54.7 601 82 601C109.3 601 136.7 601 163.8 601C191 601 218 601 245.2 601C272.3 601 299.7 601 327 601C354.3 601 381.7 601 409 601C436.3 601 463.7 601 491 601C518.3 601 545.7 601 573 601C600.3 601 627.7 601 654.8 601C682 601 709 601 736.2 601C763.3 601 790.7 601 818 601C845.3 601 872.7 601 886.3 601L900 601L900 401L886.3 401C872.7 401 845.3 401 818 399C790.7 397 763.3 393 736.2 396C709 399 682 409 654.8 397C627.7 385 600.3 351 573 355C545.7 359 518.3 401 491 416C463.7 431 436.3 419 409 422C381.7 425 354.3 443 327 454C299.7 465 272.3 469 245.2 448C218 427 191 381 163.8 365C136.7 349 109.3 363 82 388C54.7 413 27.3 449 13.7 467L0 485Z" fill="#2254bf"></path></svg>